<?xml version="1.0" standalone="no"?><!DOCTYPE svg PUBLIC "-//W3C//DTD SVG 1.1//EN" "http://www.w3.org/Graphics/SVG/1.1/DTD/svg11.dtd"><svg class="icon" width="200px" height="200.00px" viewBox="0 0 1024 1024" version="1.1" xmlns="http://www.w3.org/2000/svg"><path d="M868.707145 290.61896l-95.510284-15.719007-29.15911-72.034617c-16.73515-41.279149-56.549947-67.957765-101.428064-67.957765L382.358361 134.907573c-44.837184 0-84.672448 26.668383-101.519138 68.00893l-29.108968 71.983451-95.480608 15.719007c-52.991911 8.682753-91.453898 53.632501-91.453898 106.887402L64.795748 783.098371c0 59.742662 49.036833 108.351754 109.317755 108.351754l676.699086 0c60.291155 0 109.348454-48.598858 109.348454-108.34152L960.161043 397.507386C960.161043 344.251462 921.699056 299.301713 868.707145 290.61896zM897.694339 783.108604c0 25.296129-21.025872 45.874817-46.880727 45.874817L174.113503 828.983421c-25.834388 0-46.850028-20.588921-46.850028-45.88505L127.263475 397.507386c0-22.500457 16.440437-41.532929 39.11281-45.24446l112.805182-18.575054c10.746762-1.769296 19.795858-9.008164 23.882943-19.104103l35.656081-88.170109c7.188726-17.639752 24.319895-29.037337 43.63787-29.037337l260.250302 0c19.317974 0 36.409235 11.366885 43.535539 28.946262l35.737946 88.271416c4.076852 10.085706 13.125949 17.324574 23.87271 19.09387l112.825648 18.575054c0.010233 0 0.020466 0 0.020466 0.010233 22.652929 3.701299 39.093367 22.733771 39.093367 45.234227L897.694339 783.108604z" fill="#999999" /><path d="M390.593929 461.337133c-17.253966 0-31.233352 13.979386-31.233352 31.233352l0 30.470989c0 17.253966 13.979386 31.233352 31.233352 31.233352 17.253966 0 31.233352-13.979386 31.233352-31.233352l0-30.470989C421.828304 475.316519 407.847895 461.337133 390.593929 461.337133z" fill="#999999" /><path d="M634.362862 461.337133c-17.253966 0-31.233352 13.979386-31.233352 31.233352l0 30.470989c0 17.253966 13.980409 31.233352 31.233352 31.233352s31.233352-13.979386 31.233352-31.233352l0-30.470989C665.597237 475.316519 651.616828 461.337133 634.362862 461.337133z" fill="#999999" /><path d="M669.928892 597.099167c-14.671141-9.05933-33.917484-4.484128-42.976814 10.197246-24.869411 40.343847-67.978231 64.429405-115.295909 64.429405-45.549406 0-88.118943-24.208355-113.87249-64.754816-9.232269-14.559601-28.51852-18.881023-43.10882-9.618055-14.559601 9.241478-18.87079 28.54922-9.618055 43.10882 37.272905 58.69582 99.55746 93.731778 166.600389 93.731778 69.15708 0 132.143623-35.18843 168.470993-94.117564C689.175235 625.394606 684.610266 606.148263 669.928892 597.099167z" fill="#999999" /><path d="M427.706175 425.416016c5.266957 0 10.614755-1.341554 15.515369-4.158716 23.384593-13.420661 46.006823-20.222577 67.255777-20.222577 24.980951 0 49.362244 6.842849 70.50989 19.775392 14.691607 9.028631 33.93795 4.381797 42.935881-10.340509 9.008164-14.712073 4.371564-33.93795-10.340509-42.935881-30.969339-18.951631-66.615187-28.966729-103.105263-28.966729-32.29145 0-65.385173 9.597589-98.346889 28.519544-14.965853 8.581446-20.131503 27.675316-11.539824 42.630936C406.365124 419.783739 416.877549 425.416016 427.706175 425.416016z" fill="#999999" /><path d="M825.313845 399.998113l-72.878844 0c-17.253966 0-31.233352 13.979386-31.233352 31.233352 0 17.253966 13.979386 31.233352 31.233352 31.233352l72.878844 0c17.253966 0 31.233352-13.980409 31.233352-31.233352C856.54822 413.977499 842.567811 399.998113 825.313845 399.998113z" fill="#999999" /></svg>