<?xml version="1.0" standalone="no"?><!DOCTYPE svg PUBLIC "-//W3C//DTD SVG 1.1//EN" "http://www.w3.org/Graphics/SVG/1.1/DTD/svg11.dtd"><svg class="icon" width="200px" height="200.00px" viewBox="0 0 1024 1024" version="1.1" xmlns="http://www.w3.org/2000/svg"><path d="M809.571303 435.421904c-24.020066-86.194104-72.073502-134.48904-135.600351-136.855948l0-70.705342c0-17.253966-13.979386-31.233352-31.233352-31.233352-17.253966 0-31.233352 13.979386-31.233352 31.233352l0 70.478168L413.694043 298.338782l0-70.478168c0-17.253966-13.979386-31.233352-31.233352-31.233352s-31.233352 13.979386-31.233352 31.233352l0 70.681806c-64.260559 2.124384-110.00337 48.131207-135.636167 136.248104L102.269221 784.325315c-1.006933 3.110851-1.524726 6.354731-1.524726 9.628288 0 80.553641 63.605643 146.08003 141.79033 146.08003l539.891234 0c78.184687 0 141.79033-65.526389 141.79033-146.08003 0-3.273557-0.518816-6.517437-1.524726-9.628288L809.571303 435.421904zM782.425036 877.56693 242.533802 877.56693c-42.285059 0-76.94444-35.056424-79.201853-79.039147l111.959931-345.375052c24.095791-82.770122 57.514925-92.347245 80.563874-92.347245L669.103084 360.805486c25.102724 0 59.436694 15.95232 80.452333 91.940992 0.121773 0.436952 0.25378 0.873903 0.397043 1.301645l111.675452 344.480682C859.369475 842.511529 824.710095 877.56693 782.425036 877.56693z" fill="#999999" /><path d="M390.596999 453.519074c-17.253966 0-31.233352 13.979386-31.233352 31.233352l0 30.470989c0 17.253966 13.979386 31.233352 31.233352 31.233352 17.253966 0 31.233352-13.979386 31.233352-31.233352l0-30.470989C421.829328 467.49846 407.849942 453.519074 390.596999 453.519074z" fill="#999999" /><path d="M634.361839 453.519074c-17.253966 0-31.233352 13.979386-31.233352 31.233352l0 30.470989c0 17.253966 13.979386 31.233352 31.233352 31.233352 17.253966 0 31.233352-13.979386 31.233352-31.233352l0-30.470989C665.59519 467.49846 651.615804 453.519074 634.361839 453.519074z" fill="#999999" /><path d="M589.274968 594.576717c-14.528901-9.302877-33.845853-5.083785-43.148729 9.455349-0.121773 0.193405-13.379729 19.449981-33.968649 19.449981-20.008706 0-32.453133-18.127869-33.287127-19.378349-9.17087-14.407128-28.274974-18.809391-42.823318-9.750061-14.650675 9.099239-19.155269 28.355815-10.044774 43.00649 11.214413 18.047028 41.980113 48.588625 86.155219 48.588625 43.952025 0 75.094302-30.308283 86.572728-48.222281C608.033193 623.207801 603.803869 603.879594 589.274968 594.576717z" fill="#999999" /><path d="M957.156616 268.77342c-2.023076-4.28049-50.500161-105.401562-126.417201-147.443074C780.768303 93.64582 602.559529 86.325088 515.315512 86.325088c-103.673198 0-274.744411 9.323343-321.085856 35.005258C118.302383 163.371858 69.825298 264.49293 67.802222 268.77342c-7.370875 15.59621-0.711198 34.222429 14.874779 41.593304 15.626909 7.401574 34.222429 0.711198 41.593304-14.874779 11.407817-24.12649 51.658544-92.621491 100.226702-119.524211 23.150256-12.831236 152.444994-27.176966 290.818505-27.176966 139.135874 0 261.943874 14.325263 285.155529 27.176966 58.186214 32.230052 99.82045 118.679983 100.226702 119.55491 5.347798 11.255345 16.551978 17.853623 28.244274 17.853623 4.473895 0 9.018398-0.966001 13.338796-3.009544C957.867814 302.995849 964.52749 284.369629 957.156616 268.77342z" fill="#999999" /></svg>